<?xml version="1.0"?>
<svg xmlns="http://www.w3.org/2000/svg" xmlns:xlink="http://www.w3.org/1999/xlink" xmlns:svgjs="http://svgjs.com/svgjs" version="1.1" width="512" height="512" x="0" y="0" viewBox="0 0 511.997 511.997" style="enable-background:new 0 0 512 512" xml:space="preserve" class=""><g><g xmlns="http://www.w3.org/2000/svg"><path d="m242.846 348.606-6.925 14.032-15.485 2.251c-12.024 1.746-16.828 16.535-8.129 25.015l11.205 10.922-2.646 15.423c-2.053 11.974 10.526 21.114 21.28 15.46l13.852-7.282 13.85 7.281c10.753 5.655 23.334-3.487 21.279-15.46l-2.645-15.423 11.205-10.922c8.7-8.482 3.892-23.27-8.128-25.015l-15.486-2.251-6.925-14.031c-5.38-10.905-20.923-10.895-26.302 0zm6.449 20.828 6.703-13.582 6.703 13.582c2.137 4.33 6.266 7.329 11.043 8.022l14.989 2.179-10.848 10.573c-3.455 3.37-5.032 8.222-4.216 12.98l2.56 14.929-13.406-7.048c-4.272-2.245-9.376-2.248-13.649 0l-13.407 7.048 2.56-14.926c.817-4.758-.759-9.611-4.217-12.984l-10.846-10.572 14.987-2.178c4.778-.694 8.907-3.693 11.044-8.023z" fill="#4a7c12" data-original="#000000" style="" class=""/><path d="m266.175 311.595c-.895 4.044 1.658 8.048 5.702 8.943 33.188 7.345 57.275 37.375 57.275 71.405 0 40.337-32.816 73.154-73.154 73.154-40.337 0-73.153-32.816-73.153-73.154 0-34.03 24.087-64.06 57.274-71.406 4.044-.895 6.597-4.899 5.702-8.943-.896-4.043-4.897-6.598-8.944-5.702-39.687 8.785-69.032 44.196-69.032 86.051 0 48.608 39.545 88.154 88.153 88.154s88.154-39.545 88.154-88.154c0-41.94-29.436-77.287-69.033-86.051-4.038-.894-8.049 1.658-8.944 5.703z" fill="#4a7c12" data-original="#000000" style="" class=""/><path d="m337.305 122.959c3.833 1.571 8.213-.266 9.782-4.1l41.048-100.277c3.628-8.862-2.903-18.582-12.472-18.582h-54.378c-5.495 0-10.391 3.286-12.473 8.371l-52.814 129.026-52.814-129.026s-.001-.001-.001-.002c-2.083-5.084-6.978-8.369-12.471-8.369h-54.378c-9.576 0-16.097 9.724-12.473 18.582l86.666 211.725c-8.983 2.914-15.499 11.359-15.499 21.301v36.956c-35.334 20.919-59.083 59.425-59.083 103.379 0 66.198 53.855 120.053 120.053 120.053s120.054-53.855 120.054-120.053c0-43.955-23.749-82.461-59.084-103.38v-36.956c0-9.942-6.515-18.387-15.499-21.301l32.279-78.858c1.568-3.833-.267-8.213-4.101-9.782-3.833-1.569-8.212.267-9.782 4.1l-34.158 83.45h-51.084c4.178-10.208 84.256-205.839 87.684-214.216h51.086l-40.188 98.177c-1.568 3.833.266 8.213 4.1 9.782zm23.747 268.985c0 57.927-47.127 105.053-105.054 105.053s-105.053-47.126-105.053-105.053c0-58.312 47.538-105.054 105.053-105.054h.005c57.906.007 105.049 47.097 105.049 105.054zm-66.476-147.727c4.076 0 7.392 3.316 7.392 7.392v29.412c-14.432-5.969-30.076-9.13-45.969-9.13-.012 0-.024 0-.037 0-15.966.004-31.609 3.204-45.933 9.129v-29.412c0-4.076 3.316-7.392 7.393-7.392h77.154zm-72.225-24.62-83.748-204.597h51.086l58.205 142.195z" fill="#4a7c12" data-original="#000000" style="" class=""/></g></g></svg>
