<?xml version="1.0" encoding="UTF-8"?>
<svg width="44px" height="36px" viewBox="0 0 44 36" version="1.1" xmlns="http://www.w3.org/2000/svg" xmlns:xlink="http://www.w3.org/1999/xlink">
    <!-- Generator: Sketch 47.1 (45422) - http://www.bohemiancoding.com/sketch -->
    <title>Shape</title>
    <desc>Created with Sketch.</desc>
    <defs></defs>
    <g id="Page-1" stroke="none" stroke-width="1" fill="none" fill-rule="evenodd">
        <path d="M36.386845,28.6019853 C36.8665337,28.6019853 37.2554704,28.2187748 37.2554704,27.746038 C37.2554704,27.2728274 36.8665337,26.8891432 36.386845,26.8891432 L32.70347,26.8891432 C32.2237813,26.8891432 31.8348446,27.2728274 31.8348446,27.746038 C31.8348446,28.2187748 32.2237813,28.6019853 32.70347,28.6019853 L36.386845,28.6019853 Z" id="Shape" fill="#3C7101" fill-rule="nonzero"></path>
        <path d="M36.9462417,30.5488274 L36.9462417,34.3023011 L35.9767808,34.3023011 L35.9767808,29.4825643 L33.0780016,29.4825643 C33.0674379,29.5356169 33.0616759,29.591038 33.0616759,29.6469327 L33.0616759,30.5829327 C31.3311475,30.7653011 30.2877406,31.5677222 30.2877406,32.768038 L30.2877406,34.8171959 C30.2877406,35.289459 30.6761972,35.6731432 31.1558858,35.6731432 L32.8340759,35.6731432 L33.1841189,35.6731432 L35.8802669,35.6731432 L37.8700865,35.6731432 L37.9089802,35.6731432 C38.3886688,35.6731432 38.7776056,35.289459 38.7776056,34.8171959 L38.7776056,32.2408274 C38.7771254,31.7017748 38.502949,30.8766169 36.9462417,30.5488274 Z" id="Shape" fill="#3C7101" fill-rule="nonzero"></path>
        <polygon id="Shape" fill="#3C7101" fill-rule="nonzero" points="10.4610896 26.9649327 15.6353889 26.9649327 15.0443011 25.2516169 9.85703725 25.2516169"></polygon>
        <polygon id="Shape" fill="#3C7101" fill-rule="nonzero" points="16.5842025 21.8837222 8.67005992 21.8837222 9.2741123 23.597038 17.1752903 23.597038"></polygon>
        <path d="M27.8379193,30.9026696 L23.6321205,30.9026696 C23.4333306,30.3598274 22.5210098,27.8687222 21.6130106,25.3851959 C21.0665785,26.0573538 20.6368274,26.5949853 20.3439244,26.963038 C20.9302105,28.5669327 21.477603,30.0623538 21.7858714,30.9026696 L14.054193,30.9026696 C13.5745043,30.9026696 13.1860477,31.2868274 13.1860477,31.7595643 C13.1860477,31.7903538 13.1874882,31.8211432 13.1913296,31.8509853 C13.1879684,31.8808274 13.1860477,31.9120906 13.1860477,31.9433538 C13.1860477,32.147038 13.1394713,33.9328274 11.5323463,33.9328274 C11.028169,33.9328274 10.7962475,33.5069853 10.2618196,32.0433011 C10.1667461,31.769038 6.27641832,20.5214064 5.97679298,19.6275643 L5.96814994,19.6019853 C5.89420394,19.3807748 5.78136427,19.0463538 5.59890011,18.6896696 C9.16511398,18.6820906 15.5235096,18.6693011 16.0473737,18.6683538 C16.6648709,18.6693011 17.3654372,18.6659853 17.9541242,20.3958801 C18.0007005,20.5327748 18.1951689,21.0723011 18.4755875,21.842038 C18.8621234,21.3697748 19.2913943,20.8501432 19.7566779,20.2916696 C19.6764897,20.0680906 19.6207901,19.9131959 19.5996627,19.8506696 C18.7276761,17.289459 17.2501967,16.955038 16.0569771,16.955038 C16.0526556,16.955038 16.0478539,16.955038 16.0435324,16.955038 C15.3122353,16.9569327 3.20765936,16.982038 3.20765936,16.982038 L3.20765936,16.9938801 C3.12170914,16.9867748 3.03383825,16.982038 2.942126,16.982038 C2.2290753,16.982038 1.59765329,17.2491959 1.11604396,17.7569853 C-0.137676842,19.0771432 -0.00611058343,21.6610906 0.0130961696,21.951459 C0.0428666367,22.4019327 0.42171984,22.7519853 0.87932073,22.7519853 L0.87932073,22.7519853 L5.21572539,22.7500906 C6.44543775,26.3145643 8.50200083,32.2602485 8.62012236,32.6027222 C8.62060253,32.6041432 8.62156287,32.606038 8.62204304,32.6079327 C8.62300337,32.6107748 8.62396371,32.6131432 8.62444388,32.6159853 C9.14254604,34.0365643 9.72931235,35.6461432 11.5309058,35.6461432 C11.5971691,35.6461432 11.6610315,35.6428274 11.724894,35.6399853 C11.7565851,35.6437748 11.7887564,35.6461432 11.8209277,35.6461432 L25.3146321,35.6461432 C26.6970381,35.6461432 27.7639733,34.9578801 28.3166476,33.7087748 C28.6940603,32.8575643 28.704624,32.0338274 28.704624,31.9428801 C28.704624,31.9116169 28.7027033,31.8803538 28.6998223,31.8505117 C28.7027033,31.8206696 28.704624,31.7898801 28.704624,31.7590906 C28.7055843,31.2868274 28.3166476,30.9026696 27.8379193,30.9026696 Z M1.75274782,21.0391432 C1.80124487,20.2902485 1.97122464,19.3627748 2.38368966,18.9288801 C2.53878419,18.7649853 2.70636311,18.6953538 2.94308634,18.6953538 C3.69743157,18.6953538 3.99849742,19.1818274 4.32021053,20.1405643 L4.32885357,20.1666169 C4.36966792,20.2888274 4.47530506,20.5967222 4.62703841,21.0386696 L1.75274782,21.0391432 Z M26.7268086,33.0233538 C26.4483107,33.6524064 26.0132777,33.9333011 25.3160726,33.9333011 L14.4340065,33.9333011 C14.6611263,33.498459 14.7970141,33.0356696 14.8651981,32.616459 L26.8674981,32.616459 C26.8334061,32.7467222 26.7882702,32.8859853 26.7268086,33.0233538 Z M43.4001909,0.454722184 C43.4025917,0.609143236 43.4102744,4.3000906 39.4339964,9.27235376 C37.5747827,11.5967222 34.7701166,15.102459 31.5241753,18.8398274 C31.3032977,19.0946696 31.08242,19.3168274 30.863463,19.5115117 L24.7614776,19.3367222 C24.4877814,19.6540906 24.2203273,19.9657748 23.9600758,20.2703538 L27.9411555,20.4105643 C28.420364,20.4271432 28.7953759,20.8240906 28.77857,21.2968274 C28.7612839,21.7690906 28.3584223,22.139038 27.8796939,22.1219853 L22.5531812,21.9353538 C20.2382873,24.6988274 18.7555259,26.6001959 18.7324778,26.630038 C18.4818297,26.9516696 18.0453562,27.0492485 17.6861899,26.8881959 C17.626649,26.8621432 17.5690288,26.8285117 17.5152498,26.7877748 C17.1349561,26.4997748 17.063411,25.9621432 17.3553536,25.5869853 C17.3908861,25.5400906 21.0204823,20.8861432 25.8260119,15.5065117 C26.2082263,15.0787748 26.5817976,14.6652485 26.9491268,14.2630906 C36.9231936,3.00645903 42.4566591,0.18093271 42.723633,0.0492484995 C42.8667233,-0.0218041321 43.0376634,-0.0161199216 43.1745115,0.0672484995 C43.3128001,0.149195868 43.39779,0.295564289 43.4001909,0.454722184 Z" id="Shape" fill="#CDC8B9" fill-rule="nonzero"></path>
    </g>
</svg>